<svg width="28" height="28" viewBox="0 0 28 28" fill="none" xmlns="http://www.w3.org/2000/svg">
<g id="interface-user-circle--circle-geometric-human-person-single-user">
<path id="Vector" d="M14 26.5C20.9036 26.5 26.5 20.9036 26.5 14C26.5 7.09644 20.9036 1.5 14 1.5C7.09644 1.5 1.5 7.09644 1.5 14C1.5 20.9036 7.09644 26.5 14 26.5Z" fill="#D7E0FF" stroke="#979797" stroke-width="3" stroke-linecap="round" stroke-linejoin="round"/>
<path id="Vector_2" d="M14.0007 14.0785C16.1174 14.0785 17.8333 12.3625 17.8333 10.2458C17.8333 8.12904 16.1174 6.41309 14.0007 6.41309C11.8839 6.41309 10.168 8.12904 10.168 10.2458C10.168 12.3625 11.8839 14.0785 14.0007 14.0785Z" fill="white" stroke="#979797" stroke-width="3" stroke-linecap="round" stroke-linejoin="round"/>
<path id="Intersect" d="M21.4089 24.0689C19.3357 25.597 16.7735 26.5 14.0004 26.5C11.2273 26.5 8.66506 25.597 6.5918 24.0689C7.0047 22.5141 7.89777 21.1243 9.14932 20.1014C10.5184 18.9824 12.2322 18.3711 14.0004 18.3711C15.7685 18.3711 17.4824 18.9824 18.8514 20.1014C20.103 21.1243 20.996 22.5141 21.4089 24.0689Z" fill="white" stroke="#979797" stroke-width="3" stroke-linecap="round" stroke-linejoin="round"/>
</g>
</svg>
